<svg xmlns="http://www.w3.org/2000/svg" width="26" height="28"><path d="M2 26v-4.5h4.5V26zm5.5 0v-4.5h5V26zM2 20.5v-5h4.5v5zm5.5 0v-5h5v5zm-5.5-6V10h4.5v4.5zM13.5 26v-4.5h5V26zm-6-11.5V10h5v4.5zm12 11.5v-4.5H24V26zm-6-5.5v-5h5v5zM8 7a.514.514 0 01-.5.5h-1A.514.514 0 016 7V2.5a.514.514 0 01.5-.5h1a.514.514 0 01.5.5zm11.5 13.5v-5H24v5zm-6-6V10h5v4.5zm6 0V10H24v4.5zM20 7a.514.514 0 01-.5.5h-1A.514.514 0 0118 7V2.5a.514.514 0 01.5-.5h1a.514.514 0 01.5.5zm6-1a2.014 2.014 0 00-2-2h-2V2.5A2.507 2.507 0 0019.5 0h-1A2.507 2.507 0 0016 2.5V4h-6V2.5A2.507 2.507 0 007.5 0h-1A2.507 2.507 0 004 2.5V4H2a2.014 2.014 0 00-2 2v20a2.014 2.014 0 002 2h22a2.014 2.014 0 002-2z" fill="#38354a"/></svg>