<svg xmlns="http://www.w3.org/2000/svg" width="16.64" height="16.64" viewBox="0 0 16.64 16.64"><defs><style>.a{fill:#38354a;}</style></defs><path class="a" d="M10.82-9.5v-1.68H9.18V-9.5Zm0,6.68v-5H9.18v5ZM10-15.32a8.182,8.182,0,0,1,4.22,1.14,7.886,7.886,0,0,1,2.96,2.96A8.182,8.182,0,0,1,18.32-7a8.182,8.182,0,0,1-1.14,4.22A7.886,7.886,0,0,1,14.22.18,8.182,8.182,0,0,1,10,1.32,8.182,8.182,0,0,1,5.78.18,8.035,8.035,0,0,1,2.82-2.8,8.146,8.146,0,0,1,1.68-7a8.146,8.146,0,0,1,1.14-4.2A8.188,8.188,0,0,1,5.8-14.18,8.146,8.146,0,0,1,10-15.32Z" transform="translate(-1.68 15.32)"/></svg>