<svg xmlns="http://www.w3.org/2000/svg" xmlns:xlink="http://www.w3.org/1999/xlink" width="152" height="52" viewBox="0 0 152 52"><defs><style>.a,.e{fill:none;}.b{fill:#0d76c6;}.c{fill:#21353f; stroke-width: 1px;}.d{clip-path:url(#a);}.e{stroke:#000;stroke-width:0.5px;}</style><clipPath id="a"><rect class="a" width="152" height="52"/></clipPath></defs><g transform="translate(-30.861 -296.399)"><path class="b" d="M30.044,358.351H40.265V345.487h9.57v12.864h10.22V325.9H49.835v11.273h-9.57V325.9H30.044v32.455Zm21.788,0h10.22V347.032h5.435c4.042,0,4.321,3.227,4.6,6.318a22.984,22.984,0,0,0,.836,5H83.143c-.929-1.5-.976-5.364-1.115-6.955-.371-4.045-2.09-7.045-4.878-8.091,3.391-1.227,4.971-4.773,4.971-8.136,0-6.136-5.017-9.273-10.824-9.273H51.832v32.455Zm10.22-24.728h4.785c3.9,0,5.064,1.182,5.064,3.228,0,2.909-2.6,3.227-4.506,3.227H62.052v-6.455Zm16.074,13.819c.093,10.363,10.824,11.682,14.587,11.682,7.387,0,15.331-2.727,15.331-11.182,0-5.955-4.645-8.091-9.338-9.364s-9.43-1.773-9.616-4.091c0-1.818,2.276-2.181,3.67-2.181a5.385,5.385,0,0,1,3.02.818,2.467,2.467,0,0,1,1.208,2.591h9.663c-.279-7.909-6.643-10.591-13.844-10.591-6.829,0-13.379,3.227-13.379,10.727,0,6.546,5.993,7.955,11.242,9.409,5.714,1.591,7.154,2.046,7.154,3.727,0,2.409-2.555,2.955-4.228,2.955-1.9,0-4.135-.409-4.878-2.364a5.882,5.882,0,0,1-.372-2.136Z" transform="translate(0.817 -20.724)"/><g transform="translate(120.861 304.399)"><path class="c" d="M361.553,328.015h.623v4.273h7.406v-4.273h.623v9.594h-.623v-4.784h-7.406v4.784h-.623v-9.594Z" transform="translate(-361.12 -328.015)"/><path class="c" d="M403.529,340.243a2.963,2.963,0,0,0-3.182-2.714,3.03,3.03,0,0,0-3.181,2.714Zm-6.363.537a2.985,2.985,0,0,0,3.3,2.983,2.813,2.813,0,0,0,2.951-1.962h.623a3.437,3.437,0,0,1-3.642,2.5,3.519,3.519,0,0,1-3.858-3.708,3.849,3.849,0,0,1,7.69.188Z" transform="translate(-386.293 -334.492)"/><path class="c" d="M432.124,340.243H432.1a1.734,1.734,0,0,1-1.11.363l-2.342.161c-1.165.08-1.99.4-1.99,1.438,0,1.4,1.421,1.559,2.261,1.559,1.381,0,3.209-.618,3.209-2.258v-1.263Zm-5.781-.914c.23-1.734,1.123-2.338,3.222-2.338,2.017,0,3.181.47,3.181,2.016v3.856c0,.511,0,.82.461.82a1.943,1.943,0,0,0,.609-.107v.537a2.327,2.327,0,0,1-.758.107c-.853,0-.853-.591-.853-1.505h-.027a3.584,3.584,0,0,1-3.3,1.586c-.6,0-2.843,0-2.843-2.1,0-1.411,1.2-1.895,2.613-1.975l2.423-.161c.718-.054,1.056-.134,1.056-.981,0-.927-.528-1.559-2.572-1.559-1.828,0-2.4.564-2.586,1.8Z" transform="translate(-407.509 -334.492)"/><path class="c" d="M456.294,328.015h.622v9.594h-.622v-9.594Z" transform="translate(-429.281 -328.015)"/><path class="c" d="M462.5,329.414h.623v2.325h2.058v.537H463.12v4.958c0,.847.488.981,1.259.981.284,0,.582-.054.866-.081v.537a5.49,5.49,0,0,1-1.056.081c-1.448,0-1.692-.537-1.692-1.854v-4.622h-1.57v-.537h1.57v-2.325Z" transform="translate(-432.614 -329.024)"/><path class="c" d="M479.313,328.015h.623V332.1h.027a3.1,3.1,0,0,1,2.924-1.586c3.181,0,3.181,2.016,3.181,2.848v4.246h-.623V333.39c0-1.4-.528-2.338-2.572-2.338s-2.938,1.263-2.938,2.54v4.018h-.623v-9.594Z" transform="translate(-445.841 -328.015)"/><path class="c" d="M362.176,376.142h4.21c.609,0,2.749,0,2.749-2.19,0-1.559-1.219-1.962-2.586-1.962h-4.373v4.152Zm-.623-4.689h4.941c1.855,0,3.262.524,3.262,2.539a2.407,2.407,0,0,1-1.976,2.378v.027a1.928,1.928,0,0,1,1.814,1.989,6.772,6.772,0,0,0,.271,2.661h-.623c-.176-.161-.23-.766-.27-2.231-.041-1.666-.582-2.136-2.491-2.136h-4.305v4.367h-.623v-9.594Z" transform="translate(-361.12 -359.357)"/><path class="c" d="M400.875,383.68a2.963,2.963,0,0,0-3.182-2.714,3.031,3.031,0,0,0-3.181,2.714Zm-6.363.537a2.985,2.985,0,0,0,3.3,2.983,2.813,2.813,0,0,0,2.951-1.962h.623a3.438,3.438,0,0,1-3.642,2.5,3.519,3.519,0,0,1-3.858-3.709,3.849,3.849,0,0,1,7.689.188Z" transform="translate(-384.384 -365.833)"/><path class="c" d="M430.229,382.806c-.081-.874-1.273-1.841-2.937-1.841a3.122,3.122,0,1,0,0,6.235,2.859,2.859,0,0,0,3.032-2.083h.623a3.4,3.4,0,0,1-3.655,2.62,3.663,3.663,0,1,1,0-7.31c2.125,0,3.479,1.209,3.56,2.378Z" transform="translate(-405.6 -365.833)"/><path class="c" d="M456.78,387.2a3.122,3.122,0,1,0-3.29-3.118,3.068,3.068,0,0,0,3.29,3.118Zm0-6.772a3.663,3.663,0,1,1-3.913,3.655,3.65,3.65,0,0,1,3.913-3.655Z" transform="translate(-426.815 -365.833)"/><path class="c" d="M482.115,381.2h.7l3.032,6.262,3.033-6.262h.7l-3.425,6.88h-.623l-3.425-6.88Z" transform="translate(-447.857 -366.39)"/><path class="c" d="M517.093,383.68a2.962,2.962,0,0,0-3.181-2.714,3.03,3.03,0,0,0-3.181,2.714Zm-6.363.537a2.985,2.985,0,0,0,3.3,2.983,2.813,2.813,0,0,0,2.952-1.962h.622a3.438,3.438,0,0,1-3.642,2.5,3.519,3.519,0,0,1-3.858-3.709,3.849,3.849,0,0,1,7.69.188Z" transform="translate(-467.996 -365.833)"/><path class="c" d="M541.044,380.643h.622v1.626h.027a2.863,2.863,0,0,1,2.87-1.841,1.709,1.709,0,0,1,.515.081v.618a2.058,2.058,0,0,0-.718-.081,2.606,2.606,0,0,0-2.694,2.755v3.722h-.622v-6.88Z" transform="translate(-490.254 -365.833)"/><path class="c" d="M554.7,381.2h.7l3.114,6.195,2.857-6.195h.7l-3.817,8.089a1.746,1.746,0,0,1-1.787,1.263h-.867v-.538h.744c.8,0,.975-.175,1.5-1.236l.352-.7L554.7,381.2Z" transform="translate(-500.079 -366.39)"/><path class="c" d="M360.631,420.755c.013,1.787,1.11,2.85,3.709,2.85,2.369,0,3.236-1.008,3.236-2.137,0-1.075-.515-1.559-2.545-1.975l-1.8-.376c-2.112-.444-2.924-1.062-2.924-2.513s1.259-2.486,3.656-2.486c2.437,0,3.98.887,4.048,2.929h-.623c-.081-1.1-.7-2.392-3.249-2.392-2.356,0-3.127.86-3.127,1.962,0,1.021.447,1.532,2.288,1.894l1.99.39c1.936.376,2.992.994,2.992,2.526,0,1.3-.867,2.714-3.886,2.714-3.168,0-4.386-1.357-4.386-3.386Z" transform="translate(-360.008 -390.141)"/><path class="c" d="M396.016,430.638a3.122,3.122,0,1,0-3.29-3.118,3.069,3.069,0,0,0,3.29,3.118Zm0-6.772a3.663,3.663,0,1,1-3.913,3.655,3.649,3.649,0,0,1,3.913-3.655Z" transform="translate(-383.099 -397.175)"/><path class="c" d="M424.151,414.889h.622v9.594h-.622v-9.594Z" transform="translate(-406.156 -390.698)"/><path class="c" d="M438.722,431.517H438.1v-1.371h-.027a3.1,3.1,0,0,1-2.924,1.585c-3.181,0-3.181-2.016-3.181-2.849v-4.246h.622v4.219c0,1.4.529,2.339,2.572,2.339s2.938-1.264,2.938-2.54v-4.018h.623v6.88Z" transform="translate(-411.779 -397.732)"/><path class="c" d="M459.842,416.289h.622v2.325h2.058v.537h-2.058v4.958c0,.846.488.981,1.26.981.283,0,.582-.054.866-.08v.537a5.474,5.474,0,0,1-1.056.081c-1.448,0-1.692-.537-1.692-1.854v-4.623h-1.571v-.537h1.571v-2.325Z" transform="translate(-430.703 -391.708)"/><path class="c" d="M478.784,417.6h.622v6.88h-.622V417.6Zm0-2.714h.622v1.424h-.622v-1.424Z" transform="translate(-445.461 -390.698)"/><path class="c" d="M489.065,430.638a3.122,3.122,0,1,0-3.289-3.118,3.069,3.069,0,0,0,3.289,3.118Zm0-6.772a3.663,3.663,0,1,1-3.912,3.655,3.65,3.65,0,0,1,3.912-3.655Z" transform="translate(-450.043 -397.175)"/><path class="c" d="M517.006,424.081h.623v1.371h.027a3.1,3.1,0,0,1,2.924-1.585c3.181,0,3.181,2.015,3.181,2.848v4.247h-.623v-4.22c0-1.4-.528-2.338-2.572-2.338s-2.938,1.263-2.938,2.54v4.017h-.623v-6.88Z" transform="translate(-472.96 -397.175)"/><path class="c" d="M550.614,426.1c-.095-1.142-.826-1.693-2.627-1.693-1.706,0-2.261.659-2.261,1.371,0,.753.569,1.061,1.394,1.17l2.207.3c1.3.175,2.18.645,2.18,1.881,0,1.868-2.139,2.056-3.317,2.056-1.909,0-3.29-.645-3.385-2.365h.623c.081.713.23,1.828,2.924,1.828,1.828,0,2.532-.538,2.532-1.519,0-.793-.583-1.142-1.395-1.249l-2.437-.322c-.852-.108-1.949-.51-1.949-1.733,0-.779.556-1.948,2.911-1.948,2.572,0,3.141,1.155,3.223,2.23Z" transform="translate(-492.96 -397.175)"/></g><g transform="translate(30.861 296.399)"><g class="d"><path class="e" d="M0,0V52" transform="translate(83)"/></g></g></g></svg>
